<?xml version="1.0" encoding="utf-8"?>
<!-- Generator: Adobe Illustrator 23.1.0, SVG Export Plug-In . SVG Version: 6.00 Build 0)  -->
<svg version="1.1" id="Layer_1" xmlns="http://www.w3.org/2000/svg" xmlns:xlink="http://www.w3.org/1999/xlink" x="0px" y="0px"
	 viewBox="0 0 24 24" style="enable-background:new 0 0 24 24;" xml:space="preserve">
<style type="text/css">
	.st0{fill:#494949;}
</style>
<title>User</title>
<g>
	<path class="st0" d="M12,0.5c-3.7,0-6.7,3-6.8,6.7c0,2.2,1,4.2,2.8,5.5c-4.7,1.5-7.9,5.9-8,10.8h2c0.1-5.4,4.6-9.6,10-9.5l0,0
		c3.7,0,6.7-3,6.7-6.7S15.7,0.5,12,0.5z M12,12c-2.6,0-4.7-2.1-4.7-4.8c0-2.6,2.1-4.7,4.8-4.7c2.6,0,4.7,2.1,4.7,4.7
		C16.8,9.9,14.6,12,12,12C12,12,12,12,12,12z"/>
	<path class="st0" d="M21.1,16c-0.5-0.6-1.2-1.2-1.8-1.6L18.1,16c0.5,0.4,1,0.9,1.5,1.4c1.5,1.7,2.4,3.9,2.4,6.2h2
		C24,20.7,23,18,21.1,16z"/>
</g>
</svg>
