<?xml version="1.0" encoding="utf-8"?>
<!-- Generator: Adobe Illustrator 23.1.0, SVG Export Plug-In . SVG Version: 6.00 Build 0)  -->
<svg version="1.1" id="Layer_1" xmlns="http://www.w3.org/2000/svg" xmlns:xlink="http://www.w3.org/1999/xlink" x="0px" y="0px"
	 viewBox="0 0 31 31" style="enable-background:new 0 0 31 31;" xml:space="preserve">
<style type="text/css">
	.st0{fill:#494949;}
</style>
<title>User_Fill</title>
<g>
	<path class="st0" d="M23.1,21.8c-0.5-0.5-1-1-1.5-1.4l1.2-1.6c0.7,0.5,1.3,1,1.8,1.6c1.2,1.3,2,2.9,2.5,4.5
		c2.1-2.6,3.4-5.9,3.4-9.5c0-8.3-6.7-15-15-15c-8.3,0-15,6.7-15,15c0,3.6,1.3,7,3.4,9.6c1-3.7,3.9-6.7,7.5-7.9
		c-1.6-1.2-2.7-3.2-2.7-5.4c0-3.7,3-6.7,6.8-6.7s6.8,3,6.8,6.7s-3,6.7-6.8,6.7c0,0,0,0,0,0l0,0c-0.1,0-0.2,0-0.2,0
		c-4.9,0-8.9,3.6-9.6,8.3c2.6,2.3,6.1,3.7,9.9,3.7c3.8,0,7.3-1.4,9.9-3.8C25.1,24.9,24.4,23.2,23.1,21.8z"/>
	<ellipse class="st0" cx="15.5" cy="11.7" rx="4.8" ry="4.7"/>
</g>
</svg>
